<?xml version="1.0" encoding="UTF-8" standalone="no"?>
<!DOCTYPE svg PUBLIC "-//W3C//DTD SVG 1.1//EN" "http://www.w3.org/Graphics/SVG/1.1/DTD/svg11.dtd">
<svg width="100%" height="100%" viewBox="0 0 2769 2764" version="1.1" xmlns="http://www.w3.org/2000/svg" xmlns:xlink="http://www.w3.org/1999/xlink" xml:space="preserve" xmlns:serif="http://www.serif.com/" style="fill-rule:evenodd;clip-rule:evenodd;stroke-linejoin:round;stroke-miterlimit:2;">
    <g transform="matrix(1,0,0,1,-9132.49,-868.242)">
        <g transform="matrix(4.16667,0,0,4.16667,9084.38,0)">
            <g transform="matrix(1,0,0,1,33.3798,420.95)">
                <path d="M0,0.403L1.615,-3.433L103.778,-19.383L150.62,-6.865L147.187,-2.222L68.647,19.786L0,0.403Z" style="fill:rgb(234,234,235);fill-rule:nonzero;"/>
            </g>
            <g transform="matrix(339.825,0,0,339.825,73.2357,366.12)">
                <path d="M0.641,-0.098C0.615,-0.095 0.59,-0.091 0.565,-0.086C0.477,-0.069 0.393,-0.037 0.316,0.009C0.305,0.016 0.294,0.023 0.283,0.031C0.261,0.045 0.239,0.062 0.218,0.078C0.208,0.086 0.198,0.095 0.188,0.104L0.316,0.138L0.327,0.141C0.464,-0.036 0.691,-0.121 0.912,-0.078C0.887,-0.085 0.861,-0.09 0.835,-0.094C0.821,-0.095 0.808,-0.097 0.796,-0.098C0.771,-0.101 0.745,-0.102 0.72,-0.102C0.693,-0.102 0.667,-0.1 0.641,-0.098Z" style="fill:url(#_Linear1);fill-rule:nonzero;"/>
            </g>
            <g transform="matrix(602.738,0,0,-602.738,35.197,487.365)">
                <path d="M0.242,0.392C0.237,0.39 0.233,0.388 0.23,0.385C0.233,0.374 0.235,0.362 0.235,0.35C0.235,0.289 0.186,0.239 0.124,0.239C0.107,0.239 0.091,0.243 0.076,0.25C0.05,0.215 0.027,0.177 0.008,0.136C0.008,0.135 0.008,0.135 0.008,0.135C0.005,0.128 0.002,0.122 0,0.115L0.009,0.116L0.17,0.141C0.176,0.146 0.181,0.151 0.187,0.156C0.199,0.166 0.211,0.175 0.223,0.183C0.229,0.187 0.235,0.191 0.242,0.195C0.285,0.221 0.333,0.239 0.382,0.249C0.396,0.252 0.411,0.254 0.425,0.255C0.454,0.258 0.483,0.258 0.512,0.256C0.52,0.255 0.527,0.254 0.534,0.253C0.549,0.251 0.563,0.248 0.578,0.244C0.602,0.239 0.626,0.232 0.649,0.222C0.673,0.211 0.694,0.199 0.714,0.184C0.838,0.092 0.886,-0.076 0.821,-0.222C0.757,-0.369 0.601,-0.446 0.45,-0.417C0.518,-0.433 0.589,-0.433 0.656,-0.418C0.692,-0.41 0.727,-0.397 0.759,-0.38C0.764,-0.378 0.769,-0.375 0.773,-0.373C0.783,-0.368 0.792,-0.362 0.801,-0.356C0.809,-0.351 0.818,-0.344 0.826,-0.338C0.835,-0.332 0.843,-0.325 0.851,-0.318C0.863,-0.307 0.874,-0.296 0.885,-0.284C0.892,-0.276 0.899,-0.268 0.906,-0.259C0.917,-0.245 0.927,-0.23 0.937,-0.214C0.941,-0.207 0.946,-0.199 0.95,-0.19C0.954,-0.182 0.958,-0.174 0.962,-0.165C0.97,-0.148 0.976,-0.13 0.981,-0.113C1.004,-0.037 1.006,0.042 0.988,0.116C0.985,0.127 0.982,0.138 0.978,0.15C0.973,0.166 0.967,0.183 0.959,0.199C0.955,0.209 0.949,0.22 0.944,0.23C0.941,0.235 0.938,0.24 0.935,0.245C0.929,0.255 0.922,0.265 0.915,0.274C0.905,0.288 0.894,0.302 0.882,0.315C0.87,0.328 0.857,0.34 0.843,0.352C0.81,0.376 0.774,0.398 0.734,0.416C0.694,0.433 0.654,0.446 0.613,0.454C0.579,0.46 0.545,0.463 0.512,0.463C0.417,0.463 0.324,0.438 0.242,0.392Z" style="fill:url(#_Linear2);fill-rule:nonzero;"/>
            </g>
            <g transform="matrix(152.249,0,0,152.249,-17.4253,624.972)">
                <path d="M0.377,0.32C0.563,0.739 0.879,1.1 1.302,1.337L1.302,1.336C0.55,0.889 0.232,-0.059 0.595,-0.88C0.648,-0.999 0.712,-1.109 0.786,-1.21L0.377,-1.325L0.334,-1.337C0.122,-0.783 0.152,-0.189 0.377,0.32Z" style="fill:url(#_Linear3);fill-rule:nonzero;"/>
            </g>
            <g transform="matrix(5.68434e-14,491.037,491.037,-5.68434e-14,109.9,117.416)">
                <circle cx="0.323" cy="0" r="0.137" style="fill:url(#_Linear4);"/>
            </g>
            <g transform="matrix(817.98,0,0,817.98,-39.47,613.047)">
                <path d="M0.741,-0.386C0.75,-0.377 0.758,-0.366 0.766,-0.356C0.771,-0.349 0.776,-0.342 0.78,-0.335C0.782,-0.331 0.785,-0.327 0.787,-0.323C0.791,-0.316 0.795,-0.308 0.798,-0.301C0.804,-0.289 0.808,-0.277 0.812,-0.264C0.815,-0.256 0.817,-0.248 0.819,-0.24C0.832,-0.185 0.831,-0.127 0.814,-0.071C0.811,-0.058 0.806,-0.045 0.8,-0.032C0.797,-0.026 0.795,-0.02 0.791,-0.014C0.788,-0.008 0.785,-0.002 0.781,0.004C0.775,0.015 0.767,0.026 0.759,0.037C0.754,0.043 0.749,0.049 0.743,0.055C0.736,0.064 0.727,0.072 0.718,0.08C0.712,0.085 0.706,0.09 0.7,0.095C0.694,0.1 0.688,0.104 0.681,0.108C0.675,0.113 0.668,0.117 0.661,0.121C0.658,0.123 0.654,0.124 0.651,0.126C0.627,0.138 0.601,0.148 0.575,0.154C0.525,0.165 0.473,0.165 0.422,0.152C0.404,0.149 0.386,0.144 0.369,0.136C0.351,0.128 0.335,0.119 0.321,0.108C0.301,0.093 0.284,0.075 0.269,0.056C0.218,-0.014 0.205,-0.107 0.242,-0.192C0.249,-0.208 0.259,-0.224 0.269,-0.238L0.173,-0.212C0.159,-0.193 0.148,-0.172 0.138,-0.15C0.07,0.004 0.129,0.18 0.269,0.263L0.328,0.291C0.528,0.365 0.753,0.272 0.84,0.074C0.918,-0.101 0.86,-0.302 0.713,-0.413C0.723,-0.405 0.732,-0.396 0.741,-0.386Z" style="fill:url(#_Linear5);fill-rule:nonzero;"/>
            </g>
        </g>
    </g>
    <defs>
        <linearGradient id="_Linear1" x1="0" y1="0" x2="1" y2="0" gradientUnits="userSpaceOnUse" gradientTransform="matrix(1,0,0,-1,0,0.0196781)"><stop offset="0" style="stop-color:white;stop-opacity:1"/><stop offset="0.16" style="stop-color:white;stop-opacity:1"/><stop offset="0.33" style="stop-color:rgb(184,182,184);stop-opacity:1"/><stop offset="0.51" style="stop-color:rgb(122,122,124);stop-opacity:1"/><stop offset="0.67" style="stop-color:rgb(68,69,70);stop-opacity:1"/><stop offset="0.81" style="stop-color:rgb(31,32,32);stop-opacity:1"/><stop offset="0.93" style="stop-color:rgb(11,12,12);stop-opacity:1"/><stop offset="1" style="stop-color:rgb(3,4,5);stop-opacity:1"/></linearGradient>
        <linearGradient id="_Linear2" x1="0" y1="0" x2="1" y2="0" gradientUnits="userSpaceOnUse" gradientTransform="matrix(1,0,0,-1,0,0.0166608)"><stop offset="0" style="stop-color:rgb(255,200,72);stop-opacity:1"/><stop offset="0.02" style="stop-color:rgb(255,200,72);stop-opacity:1"/><stop offset="0.46" style="stop-color:rgb(255,204,52);stop-opacity:1"/><stop offset="0.95" style="stop-color:rgb(253,184,29);stop-opacity:1"/><stop offset="1" style="stop-color:rgb(253,184,29);stop-opacity:1"/></linearGradient>
        <linearGradient id="_Linear3" x1="0" y1="0" x2="1" y2="0" gradientUnits="userSpaceOnUse" gradientTransform="matrix(1,0,0,-1,0,6.21482e-06)"><stop offset="0" style="stop-color:rgb(3,4,5);stop-opacity:1"/><stop offset="0.05" style="stop-color:rgb(3,4,5);stop-opacity:1"/><stop offset="0.95" style="stop-color:white;stop-opacity:1"/><stop offset="1" style="stop-color:white;stop-opacity:1"/></linearGradient>
        <linearGradient id="_Linear4" x1="0" y1="0" x2="1" y2="0" gradientUnits="userSpaceOnUse" gradientTransform="matrix(0.603035,0.797715,0.797715,-0.603035,0.128025,-0.257271)"><stop offset="0" style="stop-color:white;stop-opacity:1"/><stop offset="0.13" style="stop-color:rgb(184,182,184);stop-opacity:1"/><stop offset="0.27" style="stop-color:rgb(122,122,124);stop-opacity:1"/><stop offset="0.4" style="stop-color:rgb(68,69,70);stop-opacity:1"/><stop offset="0.51" style="stop-color:rgb(31,32,32);stop-opacity:1"/><stop offset="0.6" style="stop-color:rgb(11,12,12);stop-opacity:1"/><stop offset="0.66" style="stop-color:rgb(3,4,5);stop-opacity:1"/><stop offset="1" style="stop-color:rgb(3,4,5);stop-opacity:1"/></linearGradient>
        <linearGradient id="_Linear5" x1="0" y1="0" x2="1" y2="0" gradientUnits="userSpaceOnUse" gradientTransform="matrix(1,0,0,-1,0,-0.0485952)"><stop offset="0" style="stop-color:rgb(3,4,5);stop-opacity:1"/><stop offset="0.02" style="stop-color:rgb(3,4,5);stop-opacity:1"/><stop offset="0.95" style="stop-color:white;stop-opacity:1"/><stop offset="1" style="stop-color:white;stop-opacity:1"/></linearGradient>
    </defs>
</svg>
